# xmcd
#
# Track frame offsets: 
#        150
#        9895
#        23317
#        37447
#        51105
#        65567
#        77442
#        92900
#        107660
#        119387
#        132780
#        142992
#        153702
#        164440
#        176490
#        187475
#        197352
#        213397
#        227082
#        242227
#        255497
#        268220
#
# Disc length: 3722 seconds
#
# Revision: 3
# Processed by: cddbd v1.5.1PL0 Copyright (c) Steve Scherf et al.
# Submitted via: ExactAudioCopy v0.90b4
#
DISCID=330e8816
DTITLE=Howlin' Wolf - Ain't Gonna Be Your Dog [CD1]
DYEAR=1994
DGENRE=Blues
TTITLE0=Look-A-Here Baby
TTITLE1=California Blues #1
TTITLE2=Worried All The Time
TTITLE3=Everybody's In The Mood
TTITLE4=Color And Kind
TTITLE5=Dorothy Mae
TTITLE6=Sweet Woman
TTITLE7=Decoration Day
TTITLE8=Oh Red
TTITLE9=I'm Not Joking
TTITLE10=Highway My Friend
TTITLE11=Hold Your Money
TTITLE12=California Blues #2
TTITLE13=Stay Here Til My Baby Comes Back
TTITLE14=Come To Me Baby
TTITLE15=So Glad
TTITLE16=Bluebird
TTITLE17=My Life
TTITLE18=You Ought To Know
TTITLE19=Nature (Alternate Take)
TTITLE20=Walk To Camp Hall
TTITLE21=Poor Boy (Alternate Take) (Previously Unreleased)
EXTD=
EXTT0=
EXTT1=
EXTT2=
EXTT3=
EXTT4=
EXTT5=
EXTT6=
EXTT7=
EXTT8=
EXTT9=
EXTT10=
EXTT11=
EXTT12=
EXTT13=
EXTT14=
EXTT15=
EXTT16=
EXTT17=
EXTT18=
EXTT19=
EXTT20=
EXTT21=
PLAYORDER=
